PathFileType	4	(X/Y/Z)	C:/Users/opensim2020/Desktop/walking_exp_matlab/subject01_walking15_straight_04.trc	
DataRate	CameraRate	NumFrames	NumMarkers	Units	OrigDataRate	OrigDataStartFrame	OrigNumFrames	
100.00	100.00	4	43	mm	100.00	2094	105	
Frame#	Time	LFHD			RFHD			LBHD			RBHD			C7			T10			CLAV			STRN			RBAK			LSHO			LUPA			LELB			LFRM			LWRA			LWRB			LFIN			RSHO			RUPA			RELB			RFRM			RWRA			RWRB			RFIN			LASI			RASI			LPSI			RPSI			LTHI			LKNE			LTIB			LANK			LHEE			LTOE			RTHI			RKNE			RTIB			RANK			RHEE			RTOE			*39			*40			*41			*42			
		X1	Y1	Z1	X2	Y2	Z2	X3	Y3	Z3	X4	Y4	Z4	X5	Y5	Z5	X6	Y6	Z6	X7	Y7	Z7	X8	Y8	Z8	X9	Y9	Z9	X10	Y10	Z10	X11	Y11	Z11	X12	Y12	Z12	X13	Y13	Z13	X14	Y14	Z14	X15	Y15	Z15	X16	Y16	Z16	X17	Y17	Z17	X18	Y18	Z18	X19	Y19	Z19	X20	Y20	Z20	X21	Y21	Z21	X22	Y22	Z22	X23	Y23	Z23	X24	Y24	Z24	X25	Y25	Z25	X26	Y26	Z26	X27	Y27	Z27	X28	Y28	Z28	X29	Y29	Z29	X30	Y30	Z30	X31	Y31	Z31	X32	Y32	Z32	X33	Y33	Z33	X34	Y34	Z34	X35	Y35	Z35	X36	Y36	Z36	X37	Y37	Z37	X38	Y38	Z38	X39	Y39	Z39	X40	Y40	Z40	X41	Y41	Z41	X42	Y42	Z42	X43	Y43	Z43	

14	0.130	-979.29285	669.93414	1640.30054	-1087.68457	634.12408	1651.12451	-1013.45825	782.93793	1602.78076	-1128.47095	748.75769	1613.17871	-1055.88538	820.74231	1413.25879	-1075.90283	874.93842	1122.90527	-1053.99731	678.58057	1340.00745	-1054.04822	644.77911	1182.73889	-1143.73779	885.27423	1229.68494	-894.98480	743.59454	1374.88354	-813.26178	815.14954	1200.97546	-817.58771	865.16217	1063.39624	-785.70587	872.88599	953.21649	-787.86334	844.04059	814.56488	-774.85895	898.79572	834.00806	-751.54224	887.37286	754.39911	-1203.49768	737.42761	1384.37231	-1316.80969	809.48260	1199.44055	-1334.58350	804.24402	1072.33789	-1359.31396	714.97107	985.58069	-1332.58386	584.05182	942.15784	-1370.22363	616.46649	915.43103	-1374.93262	536.71356	883.78766	-982.79181	700.88477	915.72974	-1199.14929	715.72040	913.39343	-1016.71661	889.10712	923.58466	-1158.33435	896.66296	936.81879	-922.45441	635.93652	605.90112	-942.26971	600.63977	478.62518	-935.71173	599.53180	288.89423	-989.61182	559.06384	72.54781	-1046.50806	595.44708	37.26361	-982.96606	414.47815	68.35179	-1263.58862	857.64624	600.54462	-1249.00830	902.08911	442.57059	-1258.07031	1033.42566	321.44644	-1223.29333	1154.25146	148.84607	-1171.84839	1211.30334	141.13702	-1225.26538	1059.99915	40.07330	-1065.59241	648.49048	1683.93994	-3101.88428	1973.14807	1023.53485	-3140.73584	2012.50464	1021.98145			 
15	0.140	-976.93665	655.73981	1639.86853	-1085.54431	620.24011	1650.61169	-1010.89081	768.77350	1601.83215	-1126.02539	734.95331	1612.26196	-1053.34827	806.54883	1411.91943	-1074.37231	859.87360	1121.49036	-1051.85217	663.64594	1339.15735	-1052.41101	629.25031	1182.21362	-1141.17200	870.21594	1227.84460	-892.44263	728.66064	1373.10925	-811.71295	799.70557	1198.56775	-816.88422	850.71796	1061.48132	-785.48584	859.60785	951.36511	-788.02997	832.25909	812.43274	-775.15149	886.90594	832.44458	-752.10547	876.38794	752.65656	-1201.45081	723.03540	1383.47095	-1314.52502	795.97687	1198.34949	-1332.56091	790.40997	1071.16467	-1357.32190	700.72852	985.01727	-1330.68872	569.60016	942.21643	-1368.35242	601.86670	915.36896	-1373.10913	521.82135	884.19574	-982.32977	684.90637	915.14917	-1198.10706	699.41766	911.94208	-1015.10779	873.57300	921.98474	-1157.17175	880.78131	934.44171	-922.14856	616.43848	605.47144	-942.18994	583.35925	477.27237	-937.30713	587.65790	289.27350	-990.30719	558.17841	72.93422	-1046.47363	594.13104	38.18903	-984.41595	411.94522	62.91882	-1263.08044	839.18152	598.14044	-1249.75964	883.22321	440.17740	-1258.63867	1019.06647	323.83383	-1225.01514	1145.74011	155.47289	-1173.17322	1202.56067	151.07646	-1225.47693	1059.04382	40.15177	-1063.47766	634.73199	1683.22034	-3101.94531	1973.10510	1023.45099	-3140.66797	2012.55347	1022.10822			 
16	0.150	-974.77814	641.30341	1640.00549	-1083.43457	606.24750	1650.74939	-1008.22308	754.37970	1601.62634	-1123.28845	720.96655	1611.95288	-1050.68054	792.21326	1411.31323	-1072.98706	844.10828	1120.86121	-1049.69788	648.65588	1338.76038	-1050.63916	613.90796	1182.16626	-1138.37646	855.19952	1226.50952	-889.87085	713.61115	1371.62109	-810.00464	784.22064	1196.27759	-816.06873	835.79126	1059.57947	-785.31653	845.74780	949.41565	-788.30676	819.66028	810.25696	-775.47107	874.17438	830.71851	-752.84387	864.38623	750.82281	-1199.62463	708.66583	1383.05408	-1311.93091	782.56226	1197.39722	-1330.26819	776.69415	1070.02307	-1355.20251	686.91614	984.16071	-1328.83594	555.74292	941.62061	-1366.06824	588.06207	914.43982	-1371.26208	508.00873	883.76733	-981.41779	669.21460	915.09216	-1196.93396	683.41608	910.72400	-1013.79456	857.95099	921.09454	-1156.32336	865.16901	932.29413	-921.21216	598.70544	605.57312	-942.61493	564.68207	477.79794	-937.32501	574.45837	291.05634	-989.99146	553.58459	73.82156	-1045.26843	591.94122	39.64680	-985.54285	407.87308	58.97918	-1262.47864	819.62805	595.62695	-1250.27966	862.46979	437.17023	-1259.20898	1002.57416	326.23630	-1226.67041	1135.21448	162.71288	-1174.66528	1191.08191	162.48860	-1225.63464	1058.92053	40.18510	-1061.29004	620.96234	1682.96191	-3101.98853	1973.10193	1023.48090	-3140.76099	2012.44263	1022.08466			 
17	0.160	-972.36969	626.80652	1640.42395	-1081.10901	592.02545	1651.13721	-1005.49792	739.88708	1601.94360	-1120.53015	706.76404	1612.22375	-1048.12732	777.42987	1411.40027	-1071.78455	829.30322	1121.16199	-1047.61682	633.82739	1338.86060	-1048.98877	598.56635	1182.55530	-1135.77161	840.25311	1225.99182	-887.42389	698.67529	1370.34949	-808.26215	768.56952	1194.18982	-815.33936	820.35840	1057.62708	-785.09485	831.15149	947.53442	-788.69208	806.06006	808.22913	-775.80280	860.47003	829.02942	-753.45087	851.36438	749.19891	-1198.01685	694.19727	1382.90771	-1309.34656	769.08539	1196.76758	-1327.55920	763.21454	1069.20630	-1352.86914	673.63580	983.14355	-1327.01807	542.59595	940.35089	-1364.17407	575.11804	913.28998	-1369.68933	495.27078	882.39301	-980.21210	653.55255	915.19946	-1195.40881	667.84558	909.73517	-1012.87042	842.08850	921.19495	-1155.81445	849.68506	930.40106	-920.09698	583.69952	606.65369	-943.64172	546.60889	479.99741	-936.90192	560.98877	292.87177	-988.88538	549.26819	74.70831	-1044.25354	590.15497	40.97581	-986.60803	404.93109	53.08087	-1261.70435	799.03308	592.79236	-1251.72131	839.53571	434.29089	-1260.03198	983.91675	328.80899	-1228.34326	1122.75134	170.57431	-1175.76953	1176.88782	175.01250	-1225.30286	1059.13647	40.45366	-1058.97363	606.90729	1683.54773	-3101.84106	1973.16174	1023.54242	-3140.80444	2012.49121	1022.07556			 
